<svg width="1920" height="1080" viewBox="0 0 1920 1080" fill="none" xmlns="http://www.w3.org/2000/svg">
<path d="M1328.5 755.346C1320.09 755.346 1312.86 749.527 1305.14 745.713C1300.5 743.422 1294.52 744.062 1289.85 742.262C1282.49 739.433 1280.73 730.148 1273.92 727.616C1272.48 727.084 1270.96 726.897 1269.39 726.897C1267.5 726.897 1265.54 727.168 1263.59 727.442C1261.64 727.716 1259.69 727.987 1257.83 727.987C1256.44 727.987 1255.09 727.834 1253.82 727.411C1250.34 726.249 1250.11 723.034 1247.41 721.081C1245.82 719.929 1244.22 719.647 1242.59 719.647C1241.81 719.647 1241.02 719.711 1240.23 719.778C1239.43 719.842 1238.63 719.906 1237.82 719.906C1236.83 719.906 1235.83 719.811 1234.81 719.506C1229.77 718.006 1227.25 712.4 1223.29 709.246C1218.4 705.36 1212.66 704.694 1207.36 701.87C1199.77 697.833 1198.58 691.067 1192.7 686.073C1187.92 682.012 1181.84 682.816 1177.22 678.203C1173.14 674.143 1170.51 667.948 1166.4 663.859C1161.79 659.282 1156.22 655.358 1151.61 650.54C1146.69 645.402 1143.32 639.34 1138.81 633.869C1128.17 620.992 1124.99 604.368 1115.82 591.048C1111.15 584.272 1107.44 577.104 1100.16 574.503C1103.21 569.997 1106.07 565.363 1108.74 560.602C1110.64 558.605 1112.5 556.593 1114.39 554.489C1118.47 549.939 1124.21 547.467 1128.13 542.91C1131.43 539.067 1132.9 536.041 1138.8 535.155C1144.18 534.346 1149.33 534.984 1153.77 532.073C1156.47 530.307 1158.34 529.119 1159.84 529.119C1161.64 529.119 1162.92 530.806 1164.48 535.217C1165.69 538.652 1165.04 539.367 1167.61 542.326C1169.54 544.543 1172.24 546.274 1174.01 548.59C1178.06 553.874 1178.66 558.536 1185.24 558.536C1185.93 558.536 1186.68 558.485 1187.51 558.38C1194.78 557.448 1203 552.912 1208.8 547.899C1213.41 543.916 1216.59 540.583 1222.1 537.756C1226.38 535.56 1228.18 533.52 1231.54 530.796C1235.16 527.859 1238.24 525.417 1241.26 521.787C1242.26 520.599 1244.15 517.604 1245.75 516.475C1247.19 515.451 1249.54 515.328 1250.82 514.312C1252.04 513.337 1252.4 511.099 1253.87 510.175C1255.38 509.233 1257.64 510.024 1259.19 509.251C1263.38 507.17 1264.42 502.085 1268.09 499.646C1270.22 498.227 1274.49 498.128 1276.42 496.443C1279.92 493.376 1282.32 488.512 1286.01 485.276C1293.22 478.951 1302.47 477.676 1310.83 473.406C1316.25 470.636 1320.95 466.517 1325.81 462.856C1330.83 459.077 1332.86 460.066 1337.92 457.987C1345.03 455.063 1352.62 448.167 1359.1 443.707C1361.95 441.741 1363.48 441.378 1366.59 439.99C1371.81 437.66 1374.84 433.872 1379.45 430.838C1382.35 428.926 1386.54 429.046 1389.18 427.198C1391.27 425.733 1391.85 422.838 1394.67 422.403C1394.95 422.359 1395.22 422.339 1395.48 422.339C1399.12 422.339 1401.08 426.335 1403.77 427.794C1406.9 429.497 1409.57 429.988 1412.83 431.509C1413.85 431.985 1414.18 433.682 1415.19 434.24C1416.88 435.175 1418.44 435.359 1420.35 436.078C1423.15 437.133 1425.67 438.326 1428.61 438.326C1429.27 438.326 1429.94 438.265 1430.65 438.131C1433.85 437.525 1436.51 435.147 1439.8 435.147C1440.19 435.147 1440.6 435.18 1441.02 435.257C1444.19 435.843 1444.51 437.09 1446 437.09C1446.68 437.09 1447.6 436.831 1449.14 436.132C1452.58 434.581 1458.02 432.392 1460.79 429.819C1464.5 426.363 1465.62 420.652 1469.55 417.406C1473.79 413.906 1480.23 413.125 1484.86 410.297C1492.79 405.445 1495.83 394.082 1504.94 391.762C1510.19 390.428 1513.26 391.02 1517.55 386.494C1522.38 381.407 1525.64 374.152 1531.81 370.274C1535.42 368.016 1538.74 368.121 1541.91 364.775C1548.66 357.642 1549.96 346.801 1554.1 338.174C1556.5 339.246 1558.29 340.06 1559.91 340.06C1561.61 340.06 1563.12 339.159 1564.95 336.709C1570.13 329.813 1572.75 321.413 1579.25 315.369C1582.98 311.903 1586.15 312.976 1589.38 310.825C1593.95 307.774 1597.49 301.417 1600.86 297.203C1608.58 287.568 1618.69 281.605 1625.66 271.842C1631.24 264.005 1637.25 256.172 1643.38 248.763C1646.48 245.023 1650.47 241.549 1655.54 241.093C1657.13 244.682 1654.21 248.766 1656.24 252.099C1657.13 253.566 1658.38 253.898 1659.77 253.898C1660.36 253.898 1660.96 253.842 1661.58 253.783C1662.2 253.724 1662.83 253.666 1663.46 253.666C1664.25 253.666 1665.04 253.76 1665.79 254.067C1666.08 256.986 1668.65 265.754 1672.46 265.754C1673.11 265.754 1673.78 265.508 1674.49 264.945C1676.63 267.902 1678.12 272.197 1681.29 274.409C1683.16 275.71 1684.9 276.163 1686.58 276.163C1688.48 276.163 1690.3 275.592 1692.18 275.021C1694.05 274.453 1695.96 273.879 1698.03 273.879C1698.96 273.879 1699.93 273.997 1700.94 274.281C1706.35 275.812 1708.42 281.954 1712.88 284.79C1714.87 286.057 1716.62 286.498 1718.3 286.498C1721.88 286.498 1725.13 284.488 1729.6 284.209C1729.95 284.186 1730.3 284.176 1730.64 284.176C1734.06 284.176 1737.13 285.215 1740.07 286.252C1743 287.291 1745.81 288.33 1748.72 288.33C1750.36 288.33 1752.03 288.003 1753.77 287.161C1759.41 284.434 1767.3 280.899 1772.16 276.8C1774.47 274.857 1775.03 271.342 1778.75 271.173C1778.83 271.171 1778.92 271.168 1779.01 271.168C1784.56 271.168 1784.88 279.455 1789.43 281.559C1791.23 282.391 1792.85 282.565 1794.42 282.565C1794.99 282.565 1795.55 282.542 1796.11 282.519C1796.67 282.499 1797.23 282.476 1797.8 282.476C1799.88 282.476 1802.04 282.791 1804.55 284.595C1812.21 290.092 1813.55 298.409 1822.9 302.451C1837.89 308.941 1844.17 318.748 1855.03 330.161C1856.67 332.457 1858.78 334.165 1861.35 335.281C1862.73 335.583 1864.12 335.734 1865.51 335.734C1866.56 335.734 1867.61 335.647 1868.66 335.475C1872.03 337.122 1872.17 339.922 1873.98 343.283C1879.39 342.224 1881.9 333.138 1886.46 330.107C1890.36 327.509 1892.33 329.201 1896.28 327.775C1899.2 325.394 1902.04 322.924 1904.81 320.369C1910.03 316.316 1914.96 311.949 1919.61 307.269V582.83C1916.33 585.465 1912.9 587.579 1909.25 588.79C1898.84 592.236 1892.68 592.049 1884.07 600.919C1867.48 617.984 1858.11 641.69 1842.37 659.651C1840.34 661.968 1835.69 668.135 1832.32 668.506C1832.09 668.529 1831.88 668.542 1831.67 668.542C1829.94 668.542 1828.52 667.784 1827.07 667.026C1825.62 666.268 1824.14 665.513 1822.3 665.513C1822.08 665.513 1821.85 665.523 1821.61 665.547C1811.62 666.558 1800.25 682.225 1794.72 688.666C1788.49 695.913 1782.9 703.726 1776.71 711.015C1767.66 721.657 1758.69 732.242 1744.83 735.77C1735.75 738.087 1728.34 738.261 1719.87 742.6C1714.75 745.216 1706.9 752.651 1700.55 752.651C1700.13 752.651 1699.72 752.62 1699.31 752.551C1692.61 751.432 1686.37 744.448 1679.6 742.649C1671.68 740.544 1666.92 736.313 1659.96 731.715C1653.2 727.258 1646.32 725.335 1638.97 725.335C1635.54 725.335 1632.01 725.755 1628.34 726.528C1622.06 727.854 1615.42 730.099 1608.88 730.099C1606.8 730.099 1604.74 729.874 1602.7 729.321C1596.48 727.634 1596.52 723.2 1592.19 720.046C1590.08 718.505 1584.39 718.892 1581.69 717.868C1579.18 716.921 1576.62 715.871 1574.58 714.043C1570.27 710.167 1567.05 701.809 1561.21 699.515C1559.83 698.975 1558.31 698.809 1556.74 698.809C1555.51 698.809 1554.26 698.911 1553.01 699.011C1551.77 699.111 1550.54 699.213 1549.36 699.213C1549.04 699.213 1548.72 699.205 1548.41 699.187C1544.1 698.949 1540.4 696.51 1536.29 696.51C1535.22 696.51 1534.13 696.676 1532.98 697.088C1528.98 698.532 1528.56 700.706 1526.08 700.706C1525.26 700.706 1524.21 700.467 1522.73 699.889C1519.16 698.489 1518.11 696.563 1516.05 696.563C1514.77 696.563 1513.1 697.311 1510.19 699.392C1503.11 704.461 1497.83 712.228 1489.53 715.661C1482.44 718.597 1474.03 718.088 1466.62 720.046C1458.17 722.279 1449.92 726.602 1441.41 729.196C1436.66 730.642 1434.28 731.451 1431.52 731.451C1429.75 731.451 1427.83 731.118 1425.02 730.409C1422.37 729.738 1419.49 729.552 1416.56 729.552C1412.87 729.552 1409.11 729.849 1405.68 729.849C1402.49 729.849 1399.31 729.723 1396.14 729.723C1391.12 729.723 1386.16 730.035 1381.3 731.648C1374.65 733.855 1368.91 737.736 1362.04 739.51C1351.21 742.303 1344.95 750.679 1334.62 754.286C1332.5 755.026 1330.47 755.346 1328.5 755.346" fill="url(#paint0_linear_12_243)"/>
<path d="M923.517 1079.56C861.701 1079.56 799.506 1078.41 738.703 1073.14C664.725 1066.71 592.095 1052.5 519.683 1036.62C454.794 1022.38 388.954 1009.25 327.02 984.564C293.053 971.024 263.009 954.65 232.309 935.566C184.256 905.696 135.948 869.994 97.0949 828.555C57.942 786.796 26.825 737.811 0 687.371V107.265C1.744 102.176 4.34501 98.0005 8.273 98.0005C8.53399 98.0005 8.801 98.0183 9.074 98.0567C11.394 98.3793 12.693 101.282 13.886 102.9C17.282 107.506 21.29 108.548 25.19 112.526C28.7869 116.199 30.3859 121.396 33.9131 125.124C37.4149 128.825 42.4131 129.729 46.1389 133.011C49.675 136.126 50.4399 140.435 53.6361 143.512C60.405 150.02 69.6361 155.595 77.492 160.774C79.7939 162.448 82.1629 164.013 84.6039 165.477C85.556 165.822 86.517 165.994 87.486 165.994C88.203 165.994 88.9239 165.902 89.6499 165.712C92.9889 167.085 94.0329 170.195 97.1561 171.165C98.7121 171.646 100.347 171.844 102.023 171.844C108.191 171.844 114.924 169.191 120.388 168.426C122.791 168.091 124.048 167.407 125.468 167.407C126.493 167.407 127.602 167.763 129.289 168.864C132.957 171.26 133.086 175.963 138.308 176.334C138.524 176.349 138.73 176.357 138.926 176.357C142.324 176.357 142.685 174.122 145.779 173.392C146.704 173.172 147.527 173.126 148.305 173.126C148.601 173.126 148.89 173.134 149.176 173.139C149.462 173.147 149.745 173.154 150.029 173.154C151.183 173.154 152.333 173.039 153.696 172.345C155.055 171.652 157.321 168.951 158.538 167.911C162.35 164.653 168.499 163.186 171.785 160.173C174.934 157.287 174.724 153.954 179.2 152.242C180.952 151.571 181.939 151.282 182.682 151.282C184.072 151.282 184.61 152.29 187.695 153.703C200.055 159.369 210.581 156.34 219.581 168.464C220.004 170.41 221.026 171.954 222.647 173.095C224.21 173.29 225.754 173.582 227.279 173.971C229.759 176.129 231.753 180.025 234.19 182.524C240.767 189.259 249.872 192.037 258.051 196.563C260.71 198.037 263.227 200.966 266.048 201.816C266.888 202.069 267.779 202.164 268.698 202.164C270.047 202.164 271.46 201.959 272.873 201.757C274.286 201.552 275.699 201.35 277.048 201.35C277.778 201.35 278.49 201.409 279.173 201.56C283.244 202.464 285.535 204.077 289.851 204.312C290.435 204.343 291.016 204.356 291.589 204.356C292.48 204.356 293.361 204.327 294.234 204.297C295.107 204.268 295.972 204.24 296.837 204.24C298.573 204.24 300.303 204.356 302.072 204.824C305.068 205.615 308.157 206.89 310.958 206.89C313.429 206.89 315.674 205.902 317.44 202.722C320.118 205.257 321.331 211.734 324.997 212.248C325.33 212.294 325.645 212.317 325.944 212.317C327.56 212.317 328.681 211.687 329.633 211.058C330.583 210.43 331.364 209.801 332.291 209.801C333.12 209.801 334.067 210.302 335.36 211.751C337.385 214.017 336.095 218.018 340.488 219.286C341.266 219.511 341.78 219.593 342.203 219.593C343.048 219.593 343.532 219.268 345.029 219.094C346.837 218.886 347.453 216.738 350.18 216.738C350.333 216.738 350.492 216.746 350.661 216.761C355.236 217.156 356.503 221.144 358.4 224.682C360.653 228.888 362.678 231.801 366.08 235.083C368.3 237.223 372.006 238.695 373.942 240.672C377.971 244.783 375.514 250.395 378.127 255.635C381.24 261.879 383.301 259.836 389.179 260.514C395.558 261.249 394.545 265.389 399.296 268.376C400.653 269.231 403.331 268.814 405.181 270.053C407.173 271.384 407.286 274.208 409.477 275.478C410.532 276.089 411.597 276.33 412.662 276.33C415.951 276.33 419.241 274.039 422.282 273.302C429.092 271.648 434.962 273.23 440.307 267.749C443.971 263.988 447.063 259.925 451.141 259.925C452.278 259.925 453.494 260.243 454.82 260.97C455.109 261.876 455.401 262.782 455.693 263.689C458.798 267.058 462.728 268.834 467.487 269.019C478.446 273.545 482.396 283.744 491.571 290.418C499.758 296.375 508.278 302.954 517.706 302.954C520.092 302.954 522.534 302.532 525.046 301.574C527.401 300.676 529.311 300.386 531.039 300.386C532.608 300.386 534.026 300.627 535.485 300.865C536.947 301.106 538.45 301.344 540.193 301.344C541.161 301.344 542.2 301.27 543.35 301.083C548.664 300.21 555.267 294.299 560.635 294.299C560.681 294.299 560.727 294.299 560.773 294.299C563.42 294.35 563.141 296.705 565.558 296.705C565.581 296.705 565.604 296.705 565.627 296.705C568.648 296.651 569.467 294.194 572.014 294.194C572.449 294.194 572.938 294.265 573.499 294.437C581.458 296.848 576.417 316.678 583.621 321.248C585.759 322.605 587.991 322.105 590.08 323.442C592.323 324.878 594.693 327.376 596.413 329.391C604.298 338.651 605.22 351.202 613.704 359.95C616.96 363.306 620.57 365.095 624.061 368.027C627.779 371.142 629.107 374.214 632.238 377.762C636.436 382.524 641.718 387.9 647.043 391.266C652.055 394.436 656.594 395.877 659.919 401.24C662.405 405.254 661.432 408.457 666.109 411.237C669.012 412.96 672.896 412.85 675.899 414.683C683.359 419.234 686.958 426.776 690.639 434.208C694.029 441.051 697.068 441.173 704.061 444.197C719.332 450.794 719.905 475.001 736.947 478.109C737.941 478.291 738.924 478.375 739.891 478.375C747.994 478.375 755.149 472.436 761.075 467.521C764.856 464.385 813.829 459.598 817.92 457.054C869.76 457.054 872.233 401.24 941.76 401.24C990.72 434.208 1048.32 459.014 1100.55 463.627C1107.84 466.228 1111.54 473.396 1116.21 480.173C1125.38 493.492 1128.56 510.117 1139.2 522.994C1143.72 528.464 1147.08 534.526 1152 539.664C1156.62 544.482 1162.19 548.407 1166.79 552.984C1170.9 557.072 1173.53 563.268 1177.61 567.328C1182.24 571.941 1188.31 571.137 1193.09 575.197C1198.97 580.192 1200.16 586.958 1207.75 590.995C1213.06 593.819 1218.79 594.484 1223.68 598.37C1227.65 601.524 1230.17 607.131 1235.2 608.631C1236.22 608.935 1237.22 609.03 1238.21 609.03C1239.02 609.03 1239.83 608.966 1240.62 608.902C1241.42 608.835 1242.2 608.772 1242.99 608.772C1244.61 608.772 1246.21 609.053 1247.81 610.205C1250.51 612.158 1250.74 615.374 1254.22 616.536C1255.49 616.958 1256.83 617.112 1258.23 617.112C1260.09 617.112 1262.03 616.841 1263.98 616.567C1265.94 616.293 1267.89 616.021 1269.79 616.021C1271.35 616.021 1272.88 616.208 1274.31 616.741C1281.13 619.273 1282.89 628.558 1290.24 631.387C1294.92 633.186 1300.89 632.546 1305.53 634.837C1313.25 638.652 1320.49 644.471 1328.89 644.471C1330.86 644.471 1332.89 644.151 1335.01 643.411C1345.34 639.804 1351.61 631.428 1362.43 628.635C1369.3 626.86 1375.04 622.98 1381.7 620.773C1386.55 619.16 1391.52 618.848 1396.53 618.848C1399.7 618.848 1402.89 618.973 1406.07 618.973C1409.5 618.973 1413.26 618.676 1416.95 618.676C1419.88 618.676 1422.77 618.863 1425.42 619.534C1428.22 620.243 1430.15 620.576 1431.92 620.576C1434.67 620.576 1437.05 619.767 1441.8 618.32C1450.31 615.727 1458.56 611.403 1467.01 609.171C1474.42 607.212 1482.84 607.722 1489.93 604.786C1498.22 601.353 1503.51 593.586 1510.58 588.517C1513.49 586.436 1515.16 585.688 1516.44 585.688C1518.5 585.688 1519.56 587.613 1523.13 589.013C1524.6 589.592 1525.65 589.83 1526.47 589.83C1528.96 589.83 1529.38 587.657 1533.38 586.213C1534.52 585.801 1535.62 585.634 1536.69 585.634C1540.8 585.634 1544.5 588.074 1548.8 588.312C1549.11 588.33 1549.43 588.338 1549.76 588.338C1550.93 588.338 1552.16 588.235 1553.41 588.135C1554.65 588.036 1555.91 587.933 1557.13 587.933C1558.7 587.933 1560.22 588.1 1561.6 588.64C1567.44 590.933 1570.66 599.292 1574.98 603.168C1577.02 604.996 1579.57 606.045 1582.08 606.992C1584.79 608.016 1590.47 607.63 1592.59 609.171C1596.92 612.325 1596.87 616.759 1603.1 618.446C1605.13 618.999 1607.2 619.224 1609.27 619.224C1615.81 619.224 1622.46 616.979 1628.74 615.653C1632.4 614.88 1635.93 614.46 1639.36 614.46C1646.71 614.46 1653.6 616.382 1660.35 620.839C1667.32 625.437 1672.08 629.669 1679.99 631.773C1686.77 633.573 1693.01 640.556 1699.71 641.675C1700.11 641.744 1700.52 641.775 1700.94 641.775C1707.29 641.775 1715.15 634.341 1720.26 631.724C1728.73 627.385 1736.15 627.211 1745.23 624.894C1759.08 621.367 1768.06 610.781 1777.1 600.139C1783.29 592.851 1788.88 585.038 1795.11 577.79C1800.65 571.349 1812.01 555.682 1822.01 554.671C1822.24 554.648 1822.47 554.638 1822.69 554.638C1824.53 554.638 1826.01 555.393 1827.46 556.151C1828.91 556.909 1830.34 557.666 1832.06 557.666C1832.27 557.666 1832.49 557.653 1832.71 557.63C1836.09 557.259 1840.73 551.092 1842.77 548.775C1858.5 530.814 1867.88 507.109 1884.46 490.044C1893.08 481.173 1899.24 481.36 1909.64 477.915C1913.3 476.704 1916.73 474.589 1920 471.955V799.827C1914.08 808.656 1907.9 817.332 1901.48 825.875C1876.87 858.602 1850.74 885.228 1816.85 907.864C1762.9 943.898 1702.06 962.986 1640 980.281C1598.99 991.709 1557.8 1002.06 1516.34 1011.76C1422.02 1033.81 1327.42 1056.15 1231.19 1067.91C1161.75 1076.4 1093.1 1078.61 1023.1 1079.03C990.213 1079.22 956.918 1079.56 923.517 1079.56Z" fill="url(#paint1_linear_12_243)"/>
<defs>
<linearGradient id="paint0_linear_12_243" x1="1535.22" y1="983.289" x2="1535.22" y2="278.503" gradientUnits="userSpaceOnUse">
<stop stop-color="#C43F60"/>
<stop offset="1" stop-color="#1A2847"/>
</linearGradient>
<linearGradient id="paint1_linear_12_243" x1="974.001" y1="1179.61" x2="974.001" y2="153.619" gradientUnits="userSpaceOnUse">
<stop stop-color="#C43F60"/>
<stop offset="1" stop-color="#1A2847"/>
</linearGradient>
</defs>
</svg>
