<svg width="1920" height="1080" viewBox="0 0 1920 1080" fill="none" xmlns="http://www.w3.org/2000/svg">
<g clip-path="url(#clip0_12_257)">
<circle cx="149.5" cy="182.5" r="2.5" fill="white" fill-opacity="0.15"/>
<circle cx="48.5" cy="264.5" r="2.5" fill="white" fill-opacity="0.15"/>
<circle cx="236.5" cy="99.5" r="2.5" fill="white" fill-opacity="0.15"/>
<circle cx="357.5" cy="216.5" r="2.5" fill="white" fill-opacity="0.15"/>
<circle cx="421.5" cy="140.5" r="2.5" fill="white" fill-opacity="0.15"/>
<circle cx="524.5" cy="298.5" r="2.5" fill="white" fill-opacity="0.15"/>
<circle cx="478.5" cy="50.5" r="2.5" fill="white" fill-opacity="0.15"/>
<circle cx="308.5" cy="2.5" r="2.5" fill="white" fill-opacity="0.15"/>
<circle cx="81.5" cy="20.5" r="2.5" fill="white" fill-opacity="0.15"/>
<circle cx="53.5" cy="104.5" r="2.5" fill="white" fill-opacity="0.15"/>
<circle cx="713.5" cy="135.5" r="2.5" fill="white" fill-opacity="0.15"/>
<circle cx="784.5" cy="55.5" r="2.5" fill="white" fill-opacity="0.15"/>
<circle cx="812.5" cy="259.5" r="2.5" fill="white" fill-opacity="0.15"/>
<circle cx="913.5" cy="182.5" r="2.5" fill="white" fill-opacity="0.15"/>
<circle cx="918.5" cy="109.5" r="2.5" fill="white" fill-opacity="0.15"/>
<circle cx="625.5" cy="77.5" r="2.5" fill="white" fill-opacity="0.15"/>
<circle cx="575.5" cy="187.5" r="2.5" fill="white" fill-opacity="0.15"/>
<circle cx="718.5" cy="233.5" r="2.5" fill="white" fill-opacity="0.15"/>
<circle cx="1089.5" cy="45.5" r="2.5" fill="white" fill-opacity="0.15"/>
<circle cx="1107.5" cy="145.5" r="2.5" fill="white" fill-opacity="0.15"/>
<circle cx="1210.5" cy="230.5" r="2.5" fill="white" fill-opacity="0.15"/>
<circle cx="1350.5" cy="20.5" r="2.5" fill="white" fill-opacity="0.15"/>
<circle cx="1352.5" cy="150.5" r="2.5" fill="white" fill-opacity="0.15"/>
<circle cx="1094.5" cy="315.5" r="2.5" fill="white" fill-opacity="0.15"/>
<circle cx="1094.5" cy="315.5" r="2.5" fill="white" fill-opacity="0.15"/>
<circle cx="115.5" cy="495.5" r="2.5" fill="white" fill-opacity="0.15"/>
<circle cx="14.5" cy="577.5" r="2.5" fill="white" fill-opacity="0.15"/>
<circle cx="202.5" cy="412.5" r="2.5" fill="white" fill-opacity="0.15"/>
<circle cx="323.5" cy="529.5" r="2.5" fill="white" fill-opacity="0.15"/>
<circle cx="387.5" cy="453.5" r="2.5" fill="white" fill-opacity="0.15"/>
<circle cx="490.5" cy="611.5" r="2.5" fill="white" fill-opacity="0.15"/>
<circle cx="444.5" cy="363.5" r="2.5" fill="white" fill-opacity="0.15"/>
<circle cx="274.5" cy="315.5" r="2.5" fill="white" fill-opacity="0.15"/>
<circle cx="47.5" cy="333.5" r="2.5" fill="white" fill-opacity="0.15"/>
<circle cx="19.5" cy="417.5" r="2.5" fill="white" fill-opacity="0.15"/>
<circle cx="679.5" cy="448.5" r="2.5" fill="white" fill-opacity="0.15"/>
<circle cx="750.5" cy="368.5" r="2.5" fill="white" fill-opacity="0.15"/>
<circle cx="778.5" cy="572.5" r="2.5" fill="white" fill-opacity="0.15"/>
<circle cx="879.5" cy="495.5" r="2.5" fill="white" fill-opacity="0.15"/>
<circle cx="884.5" cy="422.5" r="2.5" fill="white" fill-opacity="0.15"/>
<circle cx="591.5" cy="390.5" r="2.5" fill="white" fill-opacity="0.15"/>
<circle cx="541.5" cy="500.5" r="2.5" fill="white" fill-opacity="0.15"/>
<circle cx="684.5" cy="546.5" r="2.5" fill="white" fill-opacity="0.15"/>
<circle cx="963.5" cy="330.5" r="2.5" fill="white" fill-opacity="0.15"/>
<circle cx="1073.5" cy="458.5" r="2.5" fill="white" fill-opacity="0.15"/>
<circle cx="1176.5" cy="543.5" r="2.5" fill="white" fill-opacity="0.15"/>
<circle cx="1316.5" cy="333.5" r="2.5" fill="white" fill-opacity="0.15"/>
<circle cx="1318.5" cy="463.5" r="2.5" fill="white" fill-opacity="0.15"/>
<circle cx="1060.5" cy="628.5" r="2.5" fill="white" fill-opacity="0.15"/>
<circle cx="1060.5" cy="628.5" r="2.5" fill="white" fill-opacity="0.15"/>
<circle cx="791" cy="104" r="4" fill="white" fill-opacity="0.15"/>
<circle cx="1025" cy="258" r="4" fill="white" fill-opacity="0.15"/>
<circle cx="1183" cy="84" r="4" fill="white" fill-opacity="0.15"/>
<circle cx="819" cy="429" r="4" fill="white" fill-opacity="0.15"/>
<circle cx="819" cy="429" r="4" fill="white" fill-opacity="0.15"/>
<circle cx="483" cy="234" r="4" fill="white" fill-opacity="0.15"/>
<circle cx="279" cy="429" r="4" fill="white" fill-opacity="0.15"/>
<circle cx="122" cy="92" r="4" fill="white" fill-opacity="0.15"/>
<circle cx="117" cy="375" r="4" fill="white" fill-opacity="0.15"/>
<circle cx="659" cy="308" r="4" fill="white" fill-opacity="0.15"/>
<circle cx="392" cy="40" r="4" fill="white" fill-opacity="0.15"/>
<circle cx="1217" cy="450" r="4" fill="white" fill-opacity="0.15"/>
<circle cx="925" cy="621" r="4" fill="white" fill-opacity="0.15"/>
<circle cx="243" cy="209" r="4" fill="white" fill-opacity="0.15"/>
<circle cx="986" cy="13" r="4" fill="white" fill-opacity="0.15"/>
<circle cx="1306" cy="601" r="4" fill="white" fill-opacity="0.15"/>
<circle cx="195" cy="541" r="4" fill="white" fill-opacity="0.15"/>
<circle cx="239" cy="20" r="5" fill="white" fill-opacity="0.15"/>
<circle cx="331" cy="129" r="5" fill="white" fill-opacity="0.15"/>
<circle cx="599" cy="5" r="5" fill="white" fill-opacity="0.15"/>
<circle cx="1188" cy="10" r="5" fill="white" fill-opacity="0.15"/>
<circle cx="983" cy="542" r="5" fill="white" fill-opacity="0.15"/>
<circle cx="588" cy="598" r="5" fill="white" fill-opacity="0.15"/>
<circle cx="351" cy="341" r="5" fill="white" fill-opacity="0.15"/>
<circle cx="5" cy="185" r="5" fill="white" fill-opacity="0.15"/>
<circle cx="117" cy="600" r="5" fill="white" fill-opacity="0.15"/>
<circle cx="1220" cy="324" r="5" fill="white" fill-opacity="0.15"/>
<circle cx="1220" cy="324" r="5" fill="white" fill-opacity="0.15"/>
<circle cx="1026" cy="147" r="5" fill="white" fill-opacity="0.15"/>
<circle cx="1526.5" cy="176.5" r="2.5" fill="white" fill-opacity="0.15"/>
<circle cx="1425.5" cy="258.5" r="2.5" fill="white" fill-opacity="0.15"/>
<circle cx="1613.5" cy="93.5" r="2.5" fill="white" fill-opacity="0.15"/>
<circle cx="1734.5" cy="210.5" r="2.5" fill="white" fill-opacity="0.15"/>
<circle cx="1798.5" cy="134.5" r="2.5" fill="white" fill-opacity="0.15"/>
<circle cx="1901.5" cy="292.5" r="2.5" fill="white" fill-opacity="0.15"/>
<circle cx="1855.5" cy="44.5" r="2.5" fill="white" fill-opacity="0.15"/>
<circle cx="1458.5" cy="14.5" r="2.5" fill="white" fill-opacity="0.15"/>
<circle cx="1430.5" cy="98.5" r="2.5" fill="white" fill-opacity="0.15"/>
<circle cx="1492.5" cy="489.5" r="2.5" fill="white" fill-opacity="0.15"/>
<circle cx="1391.5" cy="571.5" r="2.5" fill="white" fill-opacity="0.15"/>
<circle cx="1579.5" cy="406.5" r="2.5" fill="white" fill-opacity="0.15"/>
<circle cx="1700.5" cy="523.5" r="2.5" fill="white" fill-opacity="0.15"/>
<circle cx="1764.5" cy="447.5" r="2.5" fill="white" fill-opacity="0.15"/>
<circle cx="1867.5" cy="605.5" r="2.5" fill="white" fill-opacity="0.15"/>
<circle cx="1821.5" cy="357.5" r="2.5" fill="white" fill-opacity="0.15"/>
<circle cx="1651.5" cy="309.5" r="2.5" fill="white" fill-opacity="0.15"/>
<circle cx="1424.5" cy="327.5" r="2.5" fill="white" fill-opacity="0.15"/>
<circle cx="1396.5" cy="411.5" r="2.5" fill="white" fill-opacity="0.15"/>
<circle cx="1918.5" cy="494.5" r="2.5" fill="white" fill-opacity="0.15"/>
<circle cx="1860" cy="228" r="4" fill="white" fill-opacity="0.15"/>
<circle cx="1656" cy="423" r="4" fill="white" fill-opacity="0.15"/>
<circle cx="1499" cy="86" r="4" fill="white" fill-opacity="0.15"/>
<circle cx="1494" cy="369" r="4" fill="white" fill-opacity="0.15"/>
<circle cx="1769" cy="34" r="4" fill="white" fill-opacity="0.15"/>
<circle cx="1620" cy="203" r="4" fill="white" fill-opacity="0.15"/>
<circle cx="1572" cy="535" r="4" fill="white" fill-opacity="0.15"/>
<circle cx="1616" cy="14" r="5" fill="white" fill-opacity="0.15"/>
<circle cx="1708" cy="123" r="5" fill="white" fill-opacity="0.15"/>
<circle cx="1728" cy="335" r="5" fill="white" fill-opacity="0.15"/>
<circle cx="1382" cy="179" r="5" fill="white" fill-opacity="0.15"/>
<circle cx="1494" cy="594" r="5" fill="white" fill-opacity="0.15"/>
</g>
<defs>
<clipPath id="clip0_12_257">
<rect width="1920" height="1080" fill="white"/>
</clipPath>
</defs>
</svg>
